<svg width="66" height="65" viewBox="0 0 66 65" fill="none" xmlns="http://www.w3.org/2000/svg">
<path d="M57.0888 3.12805H8.04323C5.33452 3.12805 3.13867 5.31637 3.13867 8.01578V56.8931C3.13867 59.5926 5.33452 61.7808 8.04323 61.7808H57.0888C59.7976 61.7808 61.9934 59.5926 61.9934 56.8931V8.01578C61.9934 5.31637 59.7976 3.12805 57.0888 3.12805Z" fill="#FFDD00"/>
<path fill-rule="evenodd" clip-rule="evenodd" d="M0 8.11364C0 3.63261 3.64511 0 8.14157 0H56.991C61.4875 0 65.1325 3.63264 65.1325 8.11364V56.7955C65.1325 61.2766 61.4875 64.9091 56.991 64.9091H8.14157C3.64515 64.9091 0 61.2766 0 56.7955V8.11364ZM8.14157 6.49091C7.24228 6.49091 6.51325 7.21744 6.51325 8.11364V56.7955C6.51325 57.6917 7.24225 58.4182 8.14157 58.4182H56.991C57.8903 58.4182 58.6193 57.6917 58.6193 56.7955V8.11364C58.6193 7.2174 57.8903 6.49091 56.991 6.49091H8.14157Z" fill="#333333"/>
<path fill-rule="evenodd" clip-rule="evenodd" d="M50.9539 31.6004C52.3673 32.7182 52.5965 34.757 51.4658 36.1542L38.3563 52.3534C37.2256 53.7506 35.1631 53.9772 33.7497 52.8594L25.5563 46.3797C24.1429 45.262 23.9137 43.2231 25.0445 41.8259C26.1752 40.4287 28.2376 40.2022 29.651 41.32L35.2853 45.7757L46.3474 32.1064C47.4781 30.7092 49.5405 30.4827 50.9539 31.6004Z" fill="#333333"/>
<path fill-rule="evenodd" clip-rule="evenodd" d="M12.9492 17.7914C12.9492 15.9558 14.4131 14.4678 16.2189 14.4678H48.916C50.7218 14.4678 52.1857 15.9558 52.1857 17.7914C52.1857 19.627 50.7218 21.1151 48.916 21.1151H16.2189C14.4131 21.1151 12.9492 19.627 12.9492 17.7914Z" fill="#333333"/>
<path fill-rule="evenodd" clip-rule="evenodd" d="M12.9492 30.8905C12.9492 29.1628 14.4131 27.7623 16.2189 27.7623H29.2977C31.1036 27.7623 32.5675 29.1628 32.5675 30.8905C32.5675 32.6181 31.1036 34.0186 29.2977 34.0186H16.2189C14.4131 34.0186 12.9492 32.6181 12.9492 30.8905Z" fill="#333333"/>
</svg>
