<svg width="79" height="68" viewBox="0 0 79 68" fill="none" xmlns="http://www.w3.org/2000/svg">
<g id="_&#207;&#128;&#197;&#147;_h_1" clip-path="url(#clip0_456_9210)">
<g id="Group">
<path id="Vector" d="M75.4091 46.5264C75.4091 56.4043 67.3655 64.4211 57.4545 64.4211C54.2407 64.4211 51.2243 63.5801 48.603 62.0948C44.0066 59.5001 40.667 54.9369 39.7514 49.5506C39.5898 48.5664 39.5 47.5464 39.5 46.5085C39.5 41.9096 41.2416 37.7222 44.0964 34.5548C47.382 30.9043 52.158 28.6138 57.4545 28.6138C67.3655 28.6138 75.4091 36.6306 75.4091 46.5085V46.5264Z" fill="#FFDD00"/>
<path id="Vector_2" d="M57.4537 68.0001C53.7371 68.0001 50.0564 67.0338 46.8425 65.2264C41.1868 62.0233 37.3087 56.5475 36.2134 50.1769C36.0159 48.978 35.9082 47.7612 35.9082 46.5264C35.9082 41.2117 37.8652 36.1296 41.4202 32.1748C45.4959 27.6475 51.3491 25.0527 57.4537 25.0527C69.3396 25.0527 78.9991 34.6801 78.9991 46.5264C78.9991 58.3727 69.3396 68.0001 57.4537 68.0001ZM57.4537 32.2106C53.378 32.2106 49.4818 33.9464 46.7707 36.9706C44.4007 39.6012 43.09 43.0012 43.09 46.5264C43.09 47.3496 43.1618 48.1727 43.2875 48.9601C44.0237 53.2012 46.5912 56.8517 50.3796 58.9991C52.5162 60.2159 54.9759 60.8422 57.4537 60.8422C65.3716 60.8422 71.8173 54.418 71.8173 46.5264C71.8173 38.6348 65.3716 32.2106 57.4537 32.2106Z" fill="#333333"/>
</g>
<path id="Vector_3" d="M30.5227 67.9999C15.818 67.9999 0 64.0809 0 55.4736V12.5262C0 10.5578 1.61591 8.94727 3.59091 8.94727C5.56591 8.94727 7.18182 10.5578 7.18182 12.5262V55.4736C7.77432 56.9052 15.6025 60.842 30.5227 60.842C34.0957 60.842 37.5789 60.5915 40.7748 60.1441C38.4407 57.3167 36.8607 53.8988 36.2143 50.1767C36.0168 48.9778 35.9091 47.7609 35.9091 46.5262C35.9091 41.2115 37.8661 36.1294 41.4211 32.1746C44.6889 28.542 49.1057 26.1441 53.8636 25.3567V12.5262C53.8636 10.5578 55.4796 8.94727 57.4546 8.94727C59.4296 8.94727 61.0455 10.5578 61.0455 12.5262V28.6315C61.0455 30.5999 59.4296 32.2104 57.4546 32.2104C53.3789 32.2104 49.4827 33.9462 46.7716 36.9704C44.4016 39.6009 43.0909 43.0009 43.0909 46.5262C43.0909 47.3494 43.1627 48.1725 43.2884 48.9599C44.0246 53.201 46.592 56.8515 50.3805 58.9988C51.6373 59.6967 52.3375 61.0925 52.1759 62.5062C52.0143 63.9378 51.0268 65.1188 49.6443 65.5304C44.3477 67.1231 37.5609 67.9999 30.5227 67.9999Z" fill="#333333"/>
<g id="Group_2">
<path id="Vector_4" d="M57.4554 12.5262C57.4554 17.4652 45.39 21.4736 30.5236 21.4736C15.6573 21.4736 3.5918 17.4652 3.5918 12.5262C3.5918 7.58728 15.6573 3.57886 30.5236 3.57886C45.39 3.57886 57.4554 7.58728 57.4554 12.5262Z" fill="#FFDD00"/>
<path id="Vector_5" d="M30.5227 25.0526C15.818 25.0526 0 21.1337 0 12.5263C0 3.91895 15.818 0 30.5227 0C45.2275 0 61.0455 3.91895 61.0455 12.5263C61.0455 21.1337 45.2275 25.0526 30.5227 25.0526ZM7.23568 12.5263C8.20523 14.1726 16.0155 17.8947 30.5227 17.8947C45.03 17.8947 52.8402 14.1726 53.8098 12.5263C52.8402 10.88 45.03 7.15789 30.5227 7.15789C16.0155 7.15789 8.20523 10.88 7.23568 12.5263Z" fill="#333333"/>
</g>
<path id="Vector_6" d="M30.5227 53.6841C15.818 53.6841 0 49.7652 0 41.1578C0 39.1894 1.61591 37.5789 3.59091 37.5789C5.56591 37.5789 7.12795 39.1357 7.18182 41.0683C7.91795 42.661 15.7282 46.5262 30.5227 46.5262C33.557 46.5262 36.5195 46.3473 39.3205 46.0073C41.2775 45.7746 43.073 47.1704 43.3243 49.121C43.5577 51.0894 42.1573 52.861 40.2002 53.1115C37.112 53.4873 33.8443 53.6841 30.5407 53.6841H30.5227Z" fill="#333333"/>
<path id="Vector_7" d="M30.5227 39.3684C15.818 39.3684 0 35.4495 0 26.8421C0 24.8737 1.61591 23.2632 3.59091 23.2632C5.56591 23.2632 7.12795 24.82 7.18182 26.7527C7.91795 28.3453 15.7282 32.2106 30.5227 32.2106C35.0832 32.2106 39.5359 31.8169 43.4141 31.0653C45.3532 30.6895 47.2384 31.96 47.6334 33.8927C48.0105 35.8253 46.7357 37.7042 44.7966 38.0979C40.4695 38.939 35.55 39.3863 30.5407 39.3863L30.5227 39.3684Z" fill="#333333"/>
<path id="Vector_8" d="M62.841 57.2631C61.9253 57.2631 61.0096 56.9053 60.3094 56.2074C58.9089 54.8116 58.9089 52.5389 60.3094 51.1431L62.1049 49.3537C63.5053 47.9579 65.7855 47.9579 67.186 49.3537C68.5864 50.7495 68.5864 53.0221 67.186 54.4179L65.3905 56.2074C64.6903 56.9053 63.7746 57.2631 62.8589 57.2631H62.841ZM52.0683 55.4737C51.1526 55.4737 50.2369 55.1158 49.5367 54.4179C48.1362 53.0221 48.1362 50.7495 49.5367 49.3537L60.3094 38.6168C61.7099 37.221 63.9901 37.221 65.3905 38.6168C66.791 40.0126 66.791 42.2853 65.3905 43.681L54.6178 54.4179C53.9176 55.1158 53.0019 55.4737 52.0862 55.4737H52.0683ZM52.0683 44.7368C51.1526 44.7368 50.2369 44.3789 49.5367 43.681C48.1362 42.2853 48.1362 40.0126 49.5367 38.6168L51.3321 36.8274C52.7326 35.4316 55.0128 35.4316 56.4133 36.8274C57.8137 38.2231 57.8137 40.4958 56.4133 41.8916L54.6178 43.681C53.9176 44.3789 53.0019 44.7368 52.0862 44.7368H52.0683Z" fill="#333333"/>
</g>
<defs>
<clipPath id="clip0_456_9210">
<rect width="79" height="68" fill="white"/>
</clipPath>
</defs>
</svg>
