<svg width="60" height="61" viewBox="0 0 60 61" fill="none" xmlns="http://www.w3.org/2000/svg">
<path fill-rule="evenodd" clip-rule="evenodd" d="M39.1674 0.366868C40.469 -0.388364 42.1334 0.0598265 42.8849 1.36793L49.161 12.2926C49.6474 13.1392 49.6471 14.1824 49.1602 15.0288C48.6734 15.8752 47.774 16.3961 46.8012 16.395L21.7441 16.3676C20.5129 16.3663 19.436 15.5344 19.118 14.3391C18.8 13.1438 19.3201 11.8828 20.3863 11.2642L39.1674 0.366868ZM31.8843 10.9088L42.0876 10.9199L39.532 6.47142L31.8843 10.9088Z" fill="#333333"/>
<path d="M2.72266 16.41C2.72266 14.8995 3.94106 13.675 5.44404 13.675H54.429C55.932 13.675 57.1504 14.8995 57.1504 16.41V54.6994C57.1504 56.2099 55.932 57.4343 54.429 57.4343H5.44404C3.94106 57.4343 2.72266 56.2099 2.72266 54.6994V16.41Z" fill="#FFDD00"/>
<path fill-rule="evenodd" clip-rule="evenodd" d="M0 16.4101C0 13.3891 2.43684 10.9402 5.44277 10.9402H54.4277C57.4337 10.9402 59.8705 13.3891 59.8705 16.4101V54.6994C59.8705 57.7204 57.4337 60.1694 54.4277 60.1694H5.44277C2.43684 60.1694 0 57.7205 0 54.6994V16.4101ZM54.4277 16.4101H5.44277V54.6994H54.4277V16.4101Z" fill="#333333"/>
<path d="M45.2432 42.3923H57.1493V28.7175H45.2432C41.2979 28.7175 38.0996 31.7788 38.0996 35.5549C38.0996 39.3311 41.2979 42.3923 45.2432 42.3923Z" fill="#FFDD00"/>
<path fill-rule="evenodd" clip-rule="evenodd" d="M35.3789 35.5548C35.3789 30.1439 39.9223 25.9824 45.2439 25.9824H57.15C58.653 25.9824 59.8714 27.2069 59.8714 28.7174V42.3921C59.8714 43.9026 58.653 45.1271 57.15 45.1271H45.2439C39.9223 45.1271 35.3789 40.9656 35.3789 35.5548ZM45.2439 31.4523C42.6749 31.4523 40.8217 33.4133 40.8217 35.5548C40.8217 37.6962 42.6749 39.6572 45.2439 39.6572H54.4286V31.4523H45.2439Z" fill="#333333"/>
<path fill-rule="evenodd" clip-rule="evenodd" d="M57.1491 17.0938C58.6521 17.0938 59.8705 18.3182 59.8705 19.8287V52.6481C59.8705 54.1586 58.6521 55.3831 57.1491 55.3831C55.6461 55.3831 54.4277 54.1586 54.4277 52.6481V19.8287C54.4277 18.3182 55.6461 17.0938 57.1491 17.0938Z" fill="#333333"/>
</svg>
