<svg width="73" height="73" viewBox="0 0 73 73" fill="none" xmlns="http://www.w3.org/2000/svg">
<path d="M36.1968 69.1065C54.2668 69.1065 68.9153 54.4159 68.9153 36.2941C68.9153 18.1723 54.2668 3.48157 36.1968 3.48157C18.127 3.48157 3.47852 18.1723 3.47852 36.2941C3.47852 54.4159 18.127 69.1065 36.1968 69.1065Z" fill="#FFDD00"/>
<path fill-rule="evenodd" clip-rule="evenodd" d="M0 36.3921C0 16.2933 16.2465 0 36.2876 0C56.3288 0 72.5754 16.2933 72.5754 36.3921C72.5754 56.4908 56.3288 72.784 36.2876 72.784C16.2465 72.784 0 56.4908 0 36.3921ZM36.2876 7.15909C20.189 7.15909 7.13855 20.2472 7.13855 36.3921C7.13855 52.5369 20.189 65.6249 36.2876 65.6249C52.3864 65.6249 65.4368 52.5369 65.4368 36.3921C65.4368 20.2472 52.3863 7.15909 36.2876 7.15909Z" fill="#333333"/>
<path fill-rule="evenodd" clip-rule="evenodd" d="M35.8589 13.7582C37.8302 13.7584 39.428 15.3612 39.4278 17.3381L39.4258 35.5584L52.251 48.4205C53.6449 49.8184 53.6449 52.0848 52.251 53.4827C50.8571 54.8806 48.5972 54.8806 47.2033 53.4827L33.3325 39.5721C32.6631 38.9007 32.287 37.9901 32.2871 37.0406L32.2893 17.3373C32.2895 15.3604 33.8877 13.758 35.8589 13.7582Z" fill="#333333"/>
</svg>
