<svg width="46" height="47" viewBox="0 0 46 47" fill="none" xmlns="http://www.w3.org/2000/svg">
<path d="M44.8197 19.2218L42.2422 16.6441C42.9485 15.1197 43.3203 13.4466 43.3203 11.7116C43.3203 8.58848 42.1059 5.6389 39.8878 3.43292C37.682 1.22693 34.7328 0 31.6101 0C28.4874 0 25.5381 1.21453 23.3324 3.43292C21.1267 5.6389 19.8999 8.58848 19.8999 11.7116C19.8999 14.8347 21.1143 17.7842 23.3324 19.9902C25.5381 22.1962 28.4874 23.4231 31.6101 23.4231C33.3449 23.4231 35.0178 23.0513 36.542 22.3449L39.1195 24.9227C39.8877 25.6787 40.8915 26.1001 41.9696 26.1001C43.0476 26.1001 44.0638 25.6787 44.8197 24.9227C46.3934 23.3488 46.3934 20.7958 44.8197 19.2218Z" fill="#001E61"/>
<path d="M39.3961 25.9892H37.5078L36.0267 20.7931C35.0023 17.2139 31.744 14.7578 28.0167 14.7578H13.6257C9.91076 14.7578 6.64008 17.2262 5.61568 20.7931L4.13463 25.9892H2.24628C0.999723 25.9892 0 26.9889 0 28.2354C0 29.482 0.999723 30.4817 2.24628 30.4817H2.85103V42.8609C2.85103 44.7122 4.34444 46.2056 6.19577 46.2056H8.49141C10.3427 46.2056 11.8361 44.7122 11.8361 42.8609V41.7131H29.8063V42.8609C29.8063 44.7122 31.2997 46.2056 33.151 46.2056H35.4467C37.298 46.2056 38.7914 44.7122 38.7914 42.8609V30.4817H39.3961C40.6427 30.4817 41.6424 29.482 41.6424 28.2354C41.6424 26.9889 40.6427 25.9892 39.3961 25.9892ZM8.38033 27.4826L9.93544 22.0273C10.4044 20.3858 11.9225 19.2504 13.6257 19.2504H28.0167C29.7199 19.2504 31.238 20.3982 31.707 22.0273L33.2621 27.4826H8.38033Z" fill="#001E61"/>
<path d="M9.07062 38.3436C10.3112 38.3436 11.3169 37.3379 11.3169 36.0973C11.3169 34.8568 10.3112 33.8511 9.07062 33.8511C7.83004 33.8511 6.82434 34.8568 6.82434 36.0973C6.82434 37.3379 7.83004 38.3436 9.07062 38.3436Z" fill="#FEDA00"/>
<path d="M32.5689 38.3435C33.8095 38.3435 34.8152 37.3378 34.8152 36.0972C34.8152 34.8566 33.8095 33.851 32.5689 33.851C31.3283 33.851 30.3226 34.8566 30.3226 36.0972C30.3226 37.3378 31.3283 38.3435 32.5689 38.3435Z" fill="#FEDA00"/>
<path d="M25.8323 34.9739H15.8228C15.2057 34.9739 14.6997 35.4799 14.6997 36.097C14.6997 36.7141 15.2057 37.2201 15.8228 37.2201H25.8323C26.4494 37.2201 26.9555 36.7141 26.9555 36.097C26.9555 35.4799 26.4494 34.9739 25.8323 34.9739Z" fill="#FEDA00"/>
<path d="M43.2234 20.9536L39.3726 17.1028C40.4217 15.5971 41.0388 13.7704 41.0388 11.7957C41.0388 6.66137 36.8795 2.5144 31.7575 2.5144C26.6355 2.5144 22.4762 6.67371 22.4762 11.7957C22.4762 16.9177 26.6355 21.077 31.7575 21.077C33.7322 21.077 35.5589 20.4599 37.0646 19.4108L40.9154 23.2616C41.2363 23.5825 41.6559 23.7429 42.0755 23.7429C42.4952 23.7429 42.9148 23.5825 43.2357 23.2616C43.8775 22.6198 43.8775 21.583 43.2357 20.9412L43.2234 20.9536Z" fill="#FEDA00"/>
</svg>
