<svg width="48" height="48" viewBox="0 0 48 48" fill="none" xmlns="http://www.w3.org/2000/svg">
<g clip-path="url(#clip0_1111_5523)">
<path d="M23.9958 30.3703C26.2835 30.3703 28.138 28.5158 28.138 26.2281C28.138 23.9405 26.2835 22.0859 23.9958 22.0859C21.7082 22.0859 19.8536 23.9405 19.8536 26.2281C19.8536 28.5158 21.7082 30.3703 23.9958 30.3703Z" stroke="#1B2C5D" stroke-width="0.11" stroke-miterlimit="10"/>
<path d="M23.9958 0C10.7459 0 0 10.7459 0 23.9958C0 37.2456 10.7459 47.9915 23.9958 47.9915C37.2456 47.9915 47.9915 37.2456 47.9915 23.9958C47.9915 10.7459 37.2541 0 23.9958 0ZM23.9958 6.40849C32.4753 6.40849 39.5544 12.4095 41.218 20.3968C35.8196 18.521 30.0308 17.5024 23.9958 17.5024C17.9607 17.5024 12.1719 18.521 6.77348 20.3968C8.43714 12.4095 15.5162 6.40849 23.9958 6.40849ZM6.65464 26.9666H9.80371C12.9867 26.9666 15.8133 28.9867 16.8403 32L19.9554 41.1247C13.1225 39.5204 7.83448 33.9438 6.64615 26.9666H6.65464ZM28.0276 41.1247L31.1427 32C32.1698 28.9867 35.0048 26.9666 38.1793 26.9666H41.3284C40.1401 33.9438 34.8435 39.5289 28.0191 41.1247H28.0276Z" fill="#1B2C5D"/>
<path d="M33.3071 14.5655C30.7862 12.0446 27.4334 10.661 23.8684 10.661C20.3034 10.661 16.9506 12.0531 14.4297 14.5655C11.9087 17.078 10.5251 20.4393 10.5251 24.0042C10.5251 27.5692 11.9172 30.922 14.4297 33.443C16.9421 35.9639 20.3034 37.3475 23.8684 37.3475C27.4334 37.3475 30.7862 35.9554 33.3071 33.443C35.8281 30.922 37.2116 27.5692 37.2116 24.0042C37.2116 20.4393 35.8196 17.0865 33.3071 14.5655ZM23.8684 34.8011C17.9013 34.8011 13.0631 29.9629 13.0631 23.9958C13.0631 18.0286 17.9013 13.1905 23.8684 13.1905C29.8355 13.1905 34.6737 18.0286 34.6737 23.9958C34.6737 29.9629 29.8355 34.8011 23.8684 34.8011Z" fill="#1B2C5D"/>
<path d="M23.8684 34.801C29.836 34.801 34.6737 29.9633 34.6737 23.9957C34.6737 18.0281 29.836 13.1904 23.8684 13.1904C17.9008 13.1904 13.0631 18.0281 13.0631 23.9957C13.0631 29.9633 17.9008 34.801 23.8684 34.801Z" fill="#FFDD00"/>
<path d="M22.8329 29.2244C22.349 29.2244 21.8737 29.0377 21.5087 28.6727L18.1644 25.3284C17.4344 24.5984 17.4344 23.4101 18.1644 22.6801C18.8944 21.9501 20.0827 21.9501 20.8127 22.6801L22.8329 24.7003L28.1973 19.3358C28.9273 18.6058 30.1156 18.6058 30.8456 19.3358C31.5756 20.0658 31.5756 21.2541 30.8456 21.9841L24.1485 28.6812C23.7835 29.0462 23.2997 29.2329 22.8244 29.2329L22.8329 29.2244Z" fill="#1B2C5D"/>
</g>
<defs>
<clipPath id="clip0_1111_5523">
<rect width="48" height="48" fill="white"/>
</clipPath>
</defs>
</svg>
