<svg width="53" height="31" viewBox="0 0 53 31" fill="none" xmlns="http://www.w3.org/2000/svg">
<g clip-path="url(#clip0_1111_5545)">
<path d="M38.324 4.39697L48.0849 4.99924C48.8118 5.04078 49.4487 5.5046 49.7118 6.18302L52.8685 14.241C52.9516 14.4418 52.9862 14.6633 52.9862 14.8779V23.0743C52.9862 23.7458 52.4393 24.2858 51.7747 24.2858H37.0294V5.60844C37.0294 4.90925 37.6178 4.35543 38.317 4.39697H38.324Z" fill="#1B2C5D"/>
<path d="M41.7714 13.8603L41.7506 7.23526C41.7506 7.07604 41.8891 6.94451 42.0483 6.95143L47.4826 7.28372C47.5933 7.28372 47.6903 7.35987 47.7249 7.46371L50.5078 14.5595C50.5839 14.7533 50.4247 14.961 50.217 14.9402L42.4152 14.1718L42.0206 14.1302C41.8752 14.1164 41.7645 13.9987 41.7645 13.8533L41.7714 13.8603Z" fill="#FFDD00"/>
<path d="M0.353056 19.6477H37.0363V24.2928H5.98119C5.60044 24.2928 5.2197 24.2236 4.86664 24.092L0.228448 22.389C0.0899948 22.3406 0 22.2021 0 22.0568V19.9938C0 19.8 0.159222 19.6407 0.353056 19.6407V19.6477Z" fill="#1B2C5D"/>
<path d="M44.769 30.2324C47.8276 30.2324 50.3071 27.7529 50.3071 24.6943C50.3071 21.6356 47.8276 19.1561 44.769 19.1561C41.7103 19.1561 39.2308 21.6356 39.2308 24.6943C39.2308 27.7529 41.7103 30.2324 44.769 30.2324Z" fill="#FFDD00"/>
<path d="M44.7689 28.924C47.105 28.924 48.9987 27.0303 48.9987 24.6942C48.9987 22.3582 47.105 20.4645 44.7689 20.4645C42.4329 20.4645 40.5392 22.3582 40.5392 24.6942C40.5392 27.0303 42.4329 28.924 44.7689 28.924Z" fill="#1B2C5D"/>
<path d="M44.769 26.6672C45.8586 26.6672 46.7419 25.7839 46.7419 24.6943C46.7419 23.6046 45.8586 22.7213 44.769 22.7213C43.6793 22.7213 42.796 23.6046 42.796 24.6943C42.796 25.7839 43.6793 26.6672 44.769 26.6672Z" fill="#FFDD00"/>
<path d="M11.9555 30.2324C15.0141 30.2324 17.4936 27.7529 17.4936 24.6943C17.4936 21.6356 15.0141 19.1561 11.9555 19.1561C8.89687 19.1561 6.41736 21.6356 6.41736 24.6943C6.41736 27.7529 8.89687 30.2324 11.9555 30.2324Z" fill="#FFDD00"/>
<path d="M11.9555 28.924C14.2915 28.924 16.1852 27.0303 16.1852 24.6942C16.1852 22.3582 14.2915 20.4645 11.9555 20.4645C9.61943 20.4645 7.72571 22.3582 7.72571 24.6942C7.72571 27.0303 9.61943 28.924 11.9555 28.924Z" fill="#1B2C5D"/>
<path d="M11.9555 26.6672C13.0451 26.6672 13.9285 25.7839 13.9285 24.6943C13.9285 23.6046 13.0451 22.7213 11.9555 22.7213C10.8659 22.7213 9.98254 23.6046 9.98254 24.6943C9.98254 25.7839 10.8659 26.6672 11.9555 26.6672Z" fill="#FFDD00"/>
<path d="M43.2598 3.89163L39.3831 3.60088V2.58325C39.3831 1.51023 40.2484 0.644897 41.3214 0.644897C42.3944 0.644897 43.2598 1.51023 43.2598 2.58325V3.88471V3.89163Z" fill="#1B2C5D"/>
<path d="M9.83027 18.6647C11.566 18.6647 12.9732 17.2576 12.9732 15.5218C12.9732 13.786 11.566 12.3789 9.83027 12.3789C8.0945 12.3789 6.68738 13.786 6.68738 15.5218C6.68738 17.2576 8.0945 18.6647 9.83027 18.6647Z" fill="#1B2C5D"/>
<path d="M28.6876 18.6647C30.4233 18.6647 31.8305 17.2576 31.8305 15.5218C31.8305 13.786 30.4233 12.3789 28.6876 12.3789C26.9518 12.3789 25.5447 13.786 25.5447 15.5218C25.5447 17.2576 26.9518 18.6647 28.6876 18.6647Z" fill="#1B2C5D"/>
<path d="M30.169 8.28066L28.023 7.84453C27.4415 7.72684 26.9362 7.38763 26.6108 6.89612L25.3439 4.99931C24.4925 3.71861 23.0525 2.9502 21.5157 2.9502H11.5817C9.60177 2.9502 7.84342 4.21705 7.21345 6.10001L7.1373 6.32846C6.85347 7.18687 6.23735 7.89299 5.4274 8.2945C4.27131 8.86908 3.54443 10.0529 3.54443 11.3405V14.1303C3.54443 14.8987 4.16747 15.5218 4.93589 15.5218H33.5058C34.2742 15.5218 34.8972 14.8987 34.8972 14.1303V14.0542C34.8972 11.2505 32.9243 8.83447 30.176 8.28066H30.169Z" fill="#1B2C5D"/>
<path d="M24.8594 8.05909L23.5925 6.16228C23.1287 5.46309 22.3464 5.04773 21.5019 5.04773H11.5678C10.4879 5.04773 9.53256 5.74 9.18642 6.76455L9.11027 6.993C8.94413 7.49143 8.71568 7.94833 8.42493 8.37061H25.074C24.9978 8.2737 24.9217 8.16986 24.8524 8.06602L24.8594 8.05909Z" fill="#FFDD00"/>
<path d="M17.7982 4.68774H15.7214V8.72366H17.7982V4.68774Z" fill="#1B2C5D"/>
</g>
<defs>
<clipPath id="clip0_1111_5545">
<rect width="53" height="29.5806" fill="white" transform="translate(0 0.651855)"/>
</clipPath>
</defs>
</svg>
