<svg width="46" height="40" viewBox="0 0 46 40" fill="none" xmlns="http://www.w3.org/2000/svg">
<path fill-rule="evenodd" clip-rule="evenodd" d="M23.0377 3.99678C14.1795 3.99678 7.004 11.1593 7.004 20.0016C7.004 21.1053 6.10767 22 5.002 22C3.89633 22 3 21.1053 3 20.0016C3 8.95195 11.9681 0 23.0377 0C29.9602 0 36.0542 3.50121 39.656 8.8156C40.2755 9.72974 40.0354 10.9721 39.1196 11.5906C38.2038 12.209 36.9592 11.9693 36.3396 11.0551C33.4499 6.79139 28.5737 3.99678 23.0377 3.99678Z" fill="#1B2C5D"/>
<path fill-rule="evenodd" clip-rule="evenodd" d="M40.998 18C42.1037 18 43 18.8947 43 19.9984C43 31.0486 34.0243 40 22.9623 40C16.0398 40 9.94576 36.4988 6.34401 31.1844C5.72446 30.2703 5.96462 29.0279 6.88041 28.4094C7.7962 27.791 9.04084 28.0307 9.66039 28.9449C12.5501 33.2086 17.4263 36.0032 22.9623 36.0032C31.814 36.0032 38.996 28.8402 38.996 19.9984C38.996 18.8947 39.8923 18 40.998 18Z" fill="#1B2C5D"/>
<path d="M37.3021 23C36.1437 23 35.5645 21.4286 36.3839 20.5079L39.9722 16.4762C40.5373 15.8413 41.4627 15.8413 42.0278 16.4762L45.6161 20.5079C46.4355 21.4286 45.8563 23 44.6979 23H37.3021Z" fill="#1B2C5D"/>
<path d="M8.69786 16C9.85631 16 10.4355 17.5714 9.61615 18.4921L6.02777 22.5238C5.46267 23.1587 4.53733 23.1587 3.97223 22.5238L0.383855 18.4921C-0.435537 17.5714 0.143689 16 1.30214 16H8.69786Z" fill="#1B2C5D"/>
<path d="M22.6204 29.2386C21.2795 29.2386 20.0892 29.0028 19.0494 28.5312C18.0153 28.0539 17.2 27.3977 16.6034 26.5625C16.0125 25.7272 15.7113 24.767 15.7 23.6818H20.3022C20.3193 24.284 20.5522 24.7642 21.0011 25.1221C21.4556 25.4801 21.9954 25.659 22.6204 25.659C23.1034 25.659 23.5295 25.5568 23.8988 25.3522C24.2681 25.142 24.5579 24.8465 24.7681 24.4659C24.9784 24.0852 25.0806 23.642 25.075 23.1363C25.0806 22.625 24.9784 22.1818 24.7681 21.8068C24.5579 21.4261 24.2681 21.1335 23.8988 20.9289C23.5295 20.7187 23.1034 20.6136 22.6204 20.6136C22.1204 20.6136 21.6573 20.7358 21.2312 20.9801C20.8107 21.2187 20.5011 21.5511 20.3022 21.9772L16.1431 21.159L16.825 11.5454H28.5522V15.3295H20.7113L20.3704 19.1818H20.4727C20.7454 18.6534 21.217 18.2159 21.8875 17.8693C22.5579 17.517 23.3363 17.3409 24.2227 17.3409C25.2625 17.3409 26.1886 17.5823 27.0011 18.0653C27.8193 18.5483 28.4642 19.2159 28.9357 20.0681C29.413 20.9147 29.6488 21.892 29.6431 23C29.6488 24.2159 29.359 25.2954 28.7738 26.2386C28.1943 27.1761 27.3789 27.9119 26.3278 28.446C25.2767 28.9744 24.0409 29.2386 22.6204 29.2386Z" fill="#1B2C5D"/>
</svg>
